<?xml version="1.0" encoding="iso-8859-1"?>
<!-- Generator: Adobe Illustrator 19.0.0, SVG Export Plug-In . SVG Version: 6.00 Build 0)  -->
<svg version="1.1" id="Layer_1" xmlns="http://www.w3.org/2000/svg" xmlns:xlink="http://www.w3.org/1999/xlink" x="0px" y="0px"
	 viewBox="0 0 512 512" style="enable-background:new 0 0 512 512;" xml:space="preserve">
<g>
	<g>
		<path d="M201.768,43.574c-16.519,0-29.957,13.438-29.957,29.957s13.438,29.957,29.957,29.957s29.957-13.438,29.957-29.957
			S218.287,43.574,201.768,43.574z M201.768,87.149c-7.509,0-13.617-6.108-13.617-13.617s6.108-13.617,13.617-13.617
			s13.617,6.108,13.617,13.617S209.277,87.149,201.768,87.149z"/>
	</g>
</g>
<g>
	<g>
		<path d="M357.552,111.558L256.787,2.622C255.241,0.951,253.066,0,250.79,0h-98.043c-2.277,0-4.451,0.951-5.998,2.622
			L45.983,111.558c-1.397,1.51-2.172,3.491-2.172,5.548v332.255c0,4.512,3.658,8.17,8.17,8.17h168.385c4.512,0,8.17-3.658,8.17-8.17
			s-3.658-8.17-8.17-8.17H60.151V120.306L156.318,16.34h90.899l96.168,103.965v132.976c0,4.512,3.657,8.17,8.17,8.17
			s8.17-3.658,8.17-8.17V117.106C359.725,115.05,358.949,113.068,357.552,111.558z"/>
	</g>
</g>
<g>
	<g>
		<circle cx="201.292" cy="277.787" r="8.17"/>
	</g>
</g>
<g>
	<g>
		<circle cx="239.42" cy="277.787" r="8.17"/>
	</g>
</g>
<g>
	<g>
		<circle cx="163.165" cy="277.787" r="8.17"/>
	</g>
</g>
<g>
	<g>
		<path d="M318.402,130.724H84.189c-4.512,0-8.17,3.658-8.17,8.17v277.786c0,4.512,3.658,8.17,8.17,8.17h126.953
			c4.512,0,8.17-3.658,8.17-8.17s-3.658-8.17-8.17-8.17H92.359V147.065h217.872v110.024c0,4.512,3.657,8.17,8.17,8.17
			s8.17-3.658,8.17-8.17V138.895C326.572,134.383,322.915,130.724,318.402,130.724z"/>
	</g>
</g>
<g>
	<g>
		<path d="M351.083,277.787c-64.572,0-117.106,52.533-117.106,117.106S286.511,512,351.083,512s117.106-52.533,117.106-117.106
			S415.655,277.787,351.083,277.787z M351.083,495.66c-55.563,0-100.766-45.203-100.766-100.766
			c0-55.563,45.203-100.766,100.766-100.766c55.563,0,100.766,45.203,100.766,100.766
			C451.849,450.457,406.646,495.66,351.083,495.66z"/>
	</g>
</g>
<g>
	<g>
		<path d="M405.551,370.383h-29.957v-29.957c0-13.516-10.996-24.511-24.511-24.511c-13.515,0-24.511,10.995-24.511,24.511v29.957
			h-29.957c-13.515,0-24.511,10.995-24.511,24.511s10.996,24.511,24.511,24.511h29.957v29.957c0,13.516,10.996,24.511,24.511,24.511
			c13.515,0,24.511-10.995,24.511-24.511v-29.957h29.957c13.515,0,24.511-10.995,24.511-24.511S419.065,370.383,405.551,370.383z
			 M405.551,403.064h-38.128c-4.513,0-8.17,3.658-8.17,8.17v38.128c0,4.506-3.665,8.17-8.17,8.17c-4.506,0-8.17-3.665-8.17-8.17
			v-38.128c0-4.512-3.657-8.17-8.17-8.17h-38.128c-4.506,0-8.17-3.665-8.17-8.17c0-4.506,3.665-8.17,8.17-8.17h38.128
			c4.513,0,8.17-3.658,8.17-8.17v-38.128c0-4.506,3.665-8.17,8.17-8.17c4.506,0,8.17,3.665,8.17,8.17v38.128
			c0,4.512,3.657,8.17,8.17,8.17h38.128c4.506,0,8.17,3.665,8.17,8.17C413.721,399.399,410.056,403.064,405.551,403.064z"/>
	</g>
</g>
</svg>
