<svg viewBox="0 0 30 30" fill="none" xmlns="http://www.w3.org/2000/svg">
    <path d="M23 19H17V21H23V19ZM21 23L21 17L19 17L19 23H21Z" fill="currentColor"/>
    <path d="M8 22V23H7V22H8ZM8 20H7L7.4453 19.1679L8 20ZM14 16L13.4453 15.1679L13.9718 14.8169L14.5145 15.1425L14 16ZM9 20V22H7V20H9ZM14.5547 16.8321L8.5547 20.8321L7.4453 19.1679L13.4453 15.1679L14.5547 16.8321ZM15.9855 18.3575L13.4855 16.8575L14.5145 15.1425L17.0145 16.6425L15.9855 18.3575ZM8 21H16V23H8V21Z" fill="currentColor"/>
    <path d="M11 14V15L10 14H11ZM11 8H10L11 7V8ZM17 14H18L17 15V14ZM17 8V7L18 8H17ZM12 8V14H10V8H12ZM11 13H17V15H11V13ZM16 14V8H18V14H16ZM17 9H11V7H17V9Z" fill="currentColor"/>
</svg>