<svg viewBox="0 0 16 19" fill="none" xmlns="http://www.w3.org/2000/svg">
  <path d="M1 15V16H0V15H1ZM1 12.5H0L0.628609 11.5715L1 12.5ZM12.5 11.4545L12.1142 12.3771L11.58 12.1537L11.5078 11.5793L12.5 11.4545ZM15 12.5L15.3858 11.5774L16 12.5H15ZM15 15H16V16H15V15ZM3.5 11.5L4.49228 11.624L4.41911 12.2094L3.87139 12.4285L3.5 11.5ZM11.5 3.5L11.8939 2.58085L12.4207 2.80662L12.4922 3.37527L11.5 3.5ZM8 2L7.60608 1.08086L8 0.912033L8.39392 1.08086L8 2ZM4.5 3.5L3.50772 3.37597L3.57887 2.8068L4.10608 2.58085L4.5 3.5ZM2 12.5V15H0V12.5H2ZM16 12.5V15H14V12.5H16ZM12.8858 10.532L15.3858 11.5774L14.6142 13.4226L12.1142 12.3771L12.8858 10.532ZM15 16H1V14H15V16ZM3.87139 12.4285L1.37139 13.4285L0.628609 11.5715L3.12861 10.5715L3.87139 12.4285ZM11.5078 11.5793L10.5078 3.62473L12.4922 3.37527L13.4922 11.3298L11.5078 11.5793ZM11.1061 4.41915L7.60608 2.91915L8.39392 1.08086L11.8939 2.58085L11.1061 4.41915ZM8.39392 2.91915L4.89392 4.41915L4.10608 2.58085L7.60608 1.08086L8.39392 2.91915ZM2.50772 11.376L3.50772 3.37597L5.49228 3.62403L4.49228 11.624L2.50772 11.376Z" fill="currentColor"/>
  <path d="M6 17H10V19H6V17Z" fill="currentColor"/>
</svg>
