<svg viewBox="0 0 50 50" fill="none" xmlns="http://www.w3.org/2000/svg">
<path d="M18 16V15.1H17.1V16H18ZM18 34H17.1L18.4465 34.7814L18 34ZM32 16H32.9V15.1H32V16ZM32 34L31.5535 34.7814L32.9 34H32ZM25 30L25.4465 29.2186L25 28.9634L24.5535 29.2186L25 30ZM18.9 34V16H17.1V34H18.9ZM18 16.9H32V15.1H18V16.9ZM31.1 16V34H32.9V16H31.1ZM32.4465 33.2186L25.4465 29.2186L24.5535 30.7814L31.5535 34.7814L32.4465 33.2186ZM24.5535 29.2186L17.5535 33.2186L18.4465 34.7814L25.4465 30.7814L24.5535 29.2186Z" fill="currentColor"/>
</svg>
