<svg width="24" height="24" viewBox="0 0 24 24" fill="none" xmlns="http://www.w3.org/2000/svg">
<path fill-rule="evenodd" clip-rule="evenodd" d="M21 2H3C1.89543 2 1 2.89543 1 4V22C1 22.5523 1.44772 23 2 23H22C22.5523 23 23 22.5523 23 22V4C23 2.89543 22.1046 2 21 2ZM3 1C1.34315 1 0 2.34315 0 4V22C0 23.1046 0.89543 24 2 24H22C23.1046 24 24 23.1046 24 22V4C24 2.34315 22.6569 1 21 1H3Z" fill="black"/>
<path fill-rule="evenodd" clip-rule="evenodd" d="M24 9H0V7H24V9Z" fill="black"/>
<path d="M10 2C10 0.89543 10.8954 0 12 0V0C13.1046 0 14 0.895431 14 2V4C14 5.10457 13.1046 6 12 6V6C10.8954 6 10 5.10457 10 4V2Z" fill="white"/>
<path fill-rule="evenodd" clip-rule="evenodd" d="M13 4V2C13 1.44772 12.5523 1 12 1C11.4477 1 11 1.44772 11 2V4C11 4.55228 11.4477 5 12 5C12.5523 5 13 4.55228 13 4ZM12 0C10.8954 0 10 0.89543 10 2V4C10 5.10457 10.8954 6 12 6C13.1046 6 14 5.10457 14 4V2C14 0.895431 13.1046 0 12 0Z" fill="black"/>
<path d="M3 2C3 0.89543 3.89543 0 5 0V0C6.10457 0 7 0.895431 7 2V4C7 5.10457 6.10457 6 5 6V6C3.89543 6 3 5.10457 3 4V2Z" fill="white"/>
<path fill-rule="evenodd" clip-rule="evenodd" d="M6 4V2C6 1.44772 5.55228 1 5 1C4.44772 1 4 1.44772 4 2V4C4 4.55228 4.44772 5 5 5C5.55228 5 6 4.55228 6 4ZM5 0C3.89543 0 3 0.89543 3 2V4C3 5.10457 3.89543 6 5 6C6.10457 6 7 5.10457 7 4V2C7 0.895431 6.10457 0 5 0Z" fill="black"/>
<path d="M17 2C17 0.89543 17.8954 0 19 0V0C20.1046 0 21 0.895431 21 2V4C21 5.10457 20.1046 6 19 6V6C17.8954 6 17 5.10457 17 4V2Z" fill="white"/>
<path fill-rule="evenodd" clip-rule="evenodd" d="M20 4V2C20 1.44772 19.5523 1 19 1C18.4477 1 18 1.44772 18 2V4C18 4.55228 18.4477 5 19 5C19.5523 5 20 4.55228 20 4ZM19 0C17.8954 0 17 0.89543 17 2V4C17 5.10457 17.8954 6 19 6C20.1046 6 21 5.10457 21 4V2C21 0.895431 20.1046 0 19 0Z" fill="black"/>
<path d="M2.23242 19.4023C2.08008 19.2734 2.06836 19.0898 2.19727 18.8516L2.4668 18.3594C2.5957 18.1211 2.80469 18.1035 3.09375 18.3066C3.33594 18.4785 3.60938 18.6191 3.91406 18.7285C4.21875 18.834 4.55859 18.8867 4.93359 18.8867C5.44922 18.8867 5.81836 18.748 6.04102 18.4707C6.26367 18.1895 6.375 17.875 6.375 17.5273C6.375 17.1719 6.24219 16.8535 5.97656 16.5723C5.71484 16.2871 5.34375 16.1445 4.86328 16.1445H4.41211C4.1582 16.1445 4.03125 16.041 4.03125 15.834V15.1895C4.03125 14.9746 4.1582 14.8672 4.41211 14.8672H4.76367C5.12305 14.8672 5.43945 14.7559 5.71289 14.5332C5.99023 14.3105 6.12891 14.0312 6.12891 13.6953C6.12891 13.4336 6.03711 13.2168 5.85352 13.0449C5.67383 12.8691 5.37891 12.7812 4.96875 12.7812C4.58203 12.7812 4.24805 12.8379 3.9668 12.9512C3.68555 13.0645 3.46289 13.2012 3.29883 13.3613C3.06445 13.5918 2.86328 13.582 2.69531 13.332L2.35547 12.834C2.22656 12.6465 2.26562 12.4551 2.47266 12.2598C2.75391 11.9902 3.11719 11.791 3.5625 11.6621C4.00781 11.5332 4.44336 11.4688 4.86914 11.4688C5.87305 11.4688 6.61914 11.6699 7.10742 12.0723C7.5957 12.4707 7.83984 12.959 7.83984 13.5371C7.83984 13.9668 7.67188 14.3594 7.33594 14.7148C7 15.0664 6.64453 15.3086 6.26953 15.4414V15.4648C6.71484 15.5742 7.13672 15.8145 7.53516 16.1855C7.93359 16.5527 8.13281 17.0098 8.13281 17.5566C8.13281 18.4121 7.86328 19.0664 7.32422 19.5195C6.78516 19.9727 5.96289 20.1992 4.85742 20.1992C4.39258 20.1992 3.91016 20.1289 3.41016 19.9883C2.91406 19.8438 2.52148 19.6484 2.23242 19.4023Z" fill="black"/>
<path d="M9 16.0684C9 14.3066 9.31445 13.0996 9.94336 12.4473C10.5762 11.7949 11.373 11.4688 12.334 11.4688C12.709 11.4688 13.082 11.5234 13.4531 11.6328C13.8242 11.7383 14.1094 11.8789 14.3086 12.0547C14.4961 12.2227 14.5371 12.3867 14.4316 12.5469L14.0449 13.127C13.9199 13.3184 13.7383 13.3184 13.5 13.127C13.3828 13.0332 13.2109 12.9531 12.9844 12.8867C12.7617 12.8164 12.5273 12.7812 12.2812 12.7812C11.8711 12.7812 11.4941 12.9746 11.1504 13.3613C10.8066 13.7441 10.6348 14.3965 10.6348 15.3184H10.6582C10.834 15.0527 11.0781 14.8633 11.3906 14.75C11.7031 14.6328 12.084 14.5742 12.5332 14.5742C13.3496 14.5742 13.9668 14.8438 14.3848 15.3828C14.8027 15.918 15.0117 16.582 15.0117 17.375C15.0117 18.2344 14.7676 18.9199 14.2793 19.4316C13.791 19.9434 13.0449 20.1992 12.041 20.1992C10.9707 20.1992 10.1953 19.8418 9.71484 19.127C9.23828 18.4082 9 17.3887 9 16.0684ZM10.9219 17.4043C10.9219 17.8809 11.0195 18.248 11.2148 18.5059C11.4102 18.7598 11.6953 18.8867 12.0703 18.8867C12.4688 18.8867 12.7656 18.7793 12.9609 18.5645C13.1562 18.3496 13.2539 17.9492 13.2539 17.3633C13.2539 16.8477 13.1562 16.4727 12.9609 16.2383C12.7656 16.0039 12.4922 15.8867 12.1406 15.8867C11.7539 15.8867 11.4531 16.0449 11.2383 16.3613C11.0273 16.6777 10.9219 17.0254 10.9219 17.4043Z" fill="black"/>
<path d="M16.248 19.4082C16.1191 19.2363 16.1016 19.0879 16.1953 18.9629L16.6055 18.4004C16.7695 18.1738 16.9688 18.168 17.2031 18.3828C17.3438 18.5117 17.5605 18.6289 17.8535 18.7344C18.1465 18.8359 18.4395 18.8867 18.7324 18.8867C19.1777 18.8867 19.5527 18.7617 19.8574 18.5117C20.166 18.2617 20.3203 17.8965 20.3203 17.416C20.3203 16.959 20.2227 16.5898 20.0273 16.3086C19.832 16.0273 19.5957 15.8867 19.3184 15.8867C19.0801 15.8867 18.8613 15.9062 18.6621 15.9453C18.4629 15.9805 18.2559 16.0918 18.041 16.2793C17.8926 16.4082 17.7129 16.4727 17.502 16.4727H16.8633C16.6094 16.4727 16.4824 16.3457 16.4824 16.0918V12.0488C16.4824 11.7949 16.6094 11.668 16.8633 11.668H21.082C21.3359 11.668 21.4629 11.7949 21.4629 12.0488V12.7402C21.4629 12.9941 21.3359 13.1211 21.082 13.1211H18.123V14.5566C18.123 14.7129 18.1152 14.8691 18.0996 15.0254H18.1348C18.3418 14.8457 18.5723 14.7266 18.8262 14.668C19.0801 14.6055 19.3516 14.5742 19.6406 14.5742C20.3242 14.5742 20.9004 14.8086 21.3691 15.2773C21.8418 15.7422 22.0781 16.4629 22.0781 17.4395C22.0781 18.3379 21.7773 19.0234 21.1758 19.4961C20.5781 19.9648 19.8672 20.1992 19.043 20.1992C18.3555 20.1992 17.7598 20.125 17.2559 19.9766C16.7559 19.8242 16.4199 19.6348 16.248 19.4082Z" fill="black"/>
</svg>
