<svg width="24" height="24" viewBox="0 0 24 24" fill="none" xmlns="http://www.w3.org/2000/svg">
<path fill-rule="evenodd" clip-rule="evenodd" d="M21 2H3C1.89543 2 1 2.89543 1 4V22C1 22.5523 1.44772 23 2 23H22C22.5523 23 23 22.5523 23 22V4C23 2.89543 22.1046 2 21 2ZM3 1C1.34315 1 0 2.34315 0 4V22C0 23.1046 0.89543 24 2 24H22C23.1046 24 24 23.1046 24 22V4C24 2.34315 22.6569 1 21 1H3Z" fill="black"/>
<path fill-rule="evenodd" clip-rule="evenodd" d="M24 9H0V7H24V9Z" fill="black"/>
<path d="M10 2C10 0.89543 10.8954 0 12 0V0C13.1046 0 14 0.895431 14 2V4C14 5.10457 13.1046 6 12 6V6C10.8954 6 10 5.10457 10 4V2Z" fill="white"/>
<path fill-rule="evenodd" clip-rule="evenodd" d="M13 4V2C13 1.44772 12.5523 1 12 1C11.4477 1 11 1.44772 11 2V4C11 4.55228 11.4477 5 12 5C12.5523 5 13 4.55228 13 4ZM12 0C10.8954 0 10 0.89543 10 2V4C10 5.10457 10.8954 6 12 6C13.1046 6 14 5.10457 14 4V2C14 0.895431 13.1046 0 12 0Z" fill="black"/>
<path d="M3 2C3 0.89543 3.89543 0 5 0V0C6.10457 0 7 0.895431 7 2V4C7 5.10457 6.10457 6 5 6V6C3.89543 6 3 5.10457 3 4V2Z" fill="white"/>
<path fill-rule="evenodd" clip-rule="evenodd" d="M6 4V2C6 1.44772 5.55228 1 5 1C4.44772 1 4 1.44772 4 2V4C4 4.55228 4.44772 5 5 5C5.55228 5 6 4.55228 6 4ZM5 0C3.89543 0 3 0.89543 3 2V4C3 5.10457 3.89543 6 5 6C6.10457 6 7 5.10457 7 4V2C7 0.895431 6.10457 0 5 0Z" fill="black"/>
<path d="M17 2C17 0.89543 17.8954 0 19 0V0C20.1046 0 21 0.895431 21 2V4C21 5.10457 20.1046 6 19 6V6C17.8954 6 17 5.10457 17 4V2Z" fill="white"/>
<path fill-rule="evenodd" clip-rule="evenodd" d="M20 4V2C20 1.44772 19.5523 1 19 1C18.4477 1 18 1.44772 18 2V4C18 4.55228 18.4477 5 19 5C19.5523 5 20 4.55228 20 4ZM19 0C17.8954 0 17 0.89543 17 2V4C17 5.10457 17.8954 6 19 6C20.1046 6 21 5.10457 21 4V2C21 0.895431 20.1046 0 19 0Z" fill="black"/>
<path d="M10.2744 13.1211C10.0205 13.1211 9.89355 12.9941 9.89355 12.7402V12.0488C9.89355 11.7949 10.0205 11.668 10.2744 11.668H15.0557C15.3096 11.668 15.4365 11.7949 15.4365 12.0488V12.7109C15.4365 12.9102 15.3389 13.1191 15.1436 13.3379C14.3428 14.2402 13.7822 15.1406 13.4619 16.0391C13.1416 16.9375 12.9814 18.0215 12.9814 19.291V19.6543C12.9814 19.9082 12.8545 20.0352 12.6006 20.0352H11.7217C11.4678 20.0352 11.3408 19.9082 11.3408 19.6543V19.4961C11.3408 18.0859 11.5732 16.9004 12.0381 15.9395C12.5068 14.9785 13.1279 14.0391 13.9014 13.1211V13.0977C13.7451 13.1133 13.5889 13.1211 13.4326 13.1211H10.2744Z" fill="black"/>
</svg>
