<svg width="24" height="24" viewBox="0 0 24 24" fill="none" xmlns="http://www.w3.org/2000/svg">
<path fill-rule="evenodd" clip-rule="evenodd" d="M21 2H3C1.89543 2 1 2.89543 1 4V22C1 22.5523 1.44772 23 2 23H22C22.5523 23 23 22.5523 23 22V4C23 2.89543 22.1046 2 21 2ZM3 1C1.34315 1 0 2.34315 0 4V22C0 23.1046 0.89543 24 2 24H22C23.1046 24 24 23.1046 24 22V4C24 2.34315 22.6569 1 21 1H3Z" fill="black"/>
<path fill-rule="evenodd" clip-rule="evenodd" d="M24 9H0V7H24V9Z" fill="black"/>
<path d="M10 2C10 0.89543 10.8954 0 12 0V0C13.1046 0 14 0.895431 14 2V4C14 5.10457 13.1046 6 12 6V6C10.8954 6 10 5.10457 10 4V2Z" fill="white"/>
<path fill-rule="evenodd" clip-rule="evenodd" d="M13 4V2C13 1.44772 12.5523 1 12 1C11.4477 1 11 1.44772 11 2V4C11 4.55228 11.4477 5 12 5C12.5523 5 13 4.55228 13 4ZM12 0C10.8954 0 10 0.89543 10 2V4C10 5.10457 10.8954 6 12 6C13.1046 6 14 5.10457 14 4V2C14 0.895431 13.1046 0 12 0Z" fill="black"/>
<path d="M3 2C3 0.89543 3.89543 0 5 0V0C6.10457 0 7 0.895431 7 2V4C7 5.10457 6.10457 6 5 6V6C3.89543 6 3 5.10457 3 4V2Z" fill="white"/>
<path fill-rule="evenodd" clip-rule="evenodd" d="M6 4V2C6 1.44772 5.55228 1 5 1C4.44772 1 4 1.44772 4 2V4C4 4.55228 4.44772 5 5 5C5.55228 5 6 4.55228 6 4ZM5 0C3.89543 0 3 0.89543 3 2V4C3 5.10457 3.89543 6 5 6C6.10457 6 7 5.10457 7 4V2C7 0.895431 6.10457 0 5 0Z" fill="black"/>
<path d="M17 2C17 0.89543 17.8954 0 19 0V0C20.1046 0 21 0.895431 21 2V4C21 5.10457 20.1046 6 19 6V6C17.8954 6 17 5.10457 17 4V2Z" fill="white"/>
<path fill-rule="evenodd" clip-rule="evenodd" d="M20 4V2C20 1.44772 19.5523 1 19 1C18.4477 1 18 1.44772 18 2V4C18 4.55228 18.4477 5 19 5C19.5523 5 20 4.55228 20 4ZM19 0C17.8954 0 17 0.89543 17 2V4C17 5.10457 17.8954 6 19 6C20.1046 6 21 5.10457 21 4V2C21 0.895431 20.1046 0 19 0Z" fill="black"/>
<path d="M6.10352 19.4023C5.95117 19.2734 5.93945 19.0898 6.06836 18.8516L6.33789 18.3594C6.4668 18.1211 6.67578 18.1035 6.96484 18.3066C7.20703 18.4785 7.48047 18.6191 7.78516 18.7285C8.08984 18.834 8.42969 18.8867 8.80469 18.8867C9.32031 18.8867 9.68945 18.748 9.91211 18.4707C10.1348 18.1895 10.2461 17.875 10.2461 17.5273C10.2461 17.1719 10.1133 16.8535 9.84766 16.5723C9.58594 16.2871 9.21484 16.1445 8.73438 16.1445H8.2832C8.0293 16.1445 7.90234 16.041 7.90234 15.834V15.1895C7.90234 14.9746 8.0293 14.8672 8.2832 14.8672H8.63477C8.99414 14.8672 9.31055 14.7559 9.58398 14.5332C9.86133 14.3105 10 14.0312 10 13.6953C10 13.4336 9.9082 13.2168 9.72461 13.0449C9.54492 12.8691 9.25 12.7812 8.83984 12.7812C8.45312 12.7812 8.11914 12.8379 7.83789 12.9512C7.55664 13.0645 7.33398 13.2012 7.16992 13.3613C6.93555 13.5918 6.73438 13.582 6.56641 13.332L6.22656 12.834C6.09766 12.6465 6.13672 12.4551 6.34375 12.2598C6.625 11.9902 6.98828 11.791 7.43359 11.6621C7.87891 11.5332 8.31445 11.4688 8.74023 11.4688C9.74414 11.4688 10.4902 11.6699 10.9785 12.0723C11.4668 12.4707 11.7109 12.959 11.7109 13.5371C11.7109 13.9668 11.543 14.3594 11.207 14.7148C10.8711 15.0664 10.5156 15.3086 10.1406 15.4414V15.4648C10.5859 15.5742 11.0078 15.8145 11.4062 16.1855C11.8047 16.5527 12.0039 17.0098 12.0039 17.5566C12.0039 18.4121 11.7344 19.0664 11.1953 19.5195C10.6562 19.9727 9.83398 20.1992 8.72852 20.1992C8.26367 20.1992 7.78125 20.1289 7.28125 19.9883C6.78516 19.8438 6.39258 19.6484 6.10352 19.4023Z" fill="black"/>
<path d="M13.416 13.332C13.3145 13.1406 13.3828 12.9922 13.6211 12.8867C13.8477 12.7852 14.084 12.6426 14.3301 12.459C14.5762 12.2754 14.7773 12.0859 14.9336 11.8906C15.1094 11.6719 15.2773 11.5625 15.4375 11.5625H16.3691C16.6035 11.5625 16.7207 11.6797 16.7207 11.9141V19.6484C16.7207 19.8828 16.6035 20 16.3691 20H15.4316C15.1973 20 15.0801 19.8828 15.0801 19.6484V14.0762C15.0801 13.9199 15.0879 13.7637 15.1035 13.6074H15.0801C14.959 13.7598 14.8262 13.8906 14.6816 14C14.5371 14.1094 14.3906 14.1953 14.2422 14.2578C14.0586 14.3359 13.9199 14.2852 13.8262 14.1055L13.416 13.332Z" fill="black"/>
</svg>
