<?xml version="1.0" encoding="UTF-8" standalone="no"?>
<svg
        xmlns:dc="http://purl.org/dc/elements/1.1/"
        xmlns:cc="http://creativecommons.org/ns#"
        xmlns:rdf="http://www.w3.org/1999/02/22-rdf-syntax-ns#"
        xmlns="http://www.w3.org/2000/svg"
        xmlns:xlink="http://www.w3.org/1999/xlink"
        viewBox="0 0 22 22"
        height="22"
        width="22"
        id="svg11831"
        version="1.1">
    <metadata
            id="metadata11837">
        <rdf:RDF>
            <cc:Work
                    rdf:about="">
                <dc:format>image/svg+xml</dc:format>
                <dc:type
                        rdf:resource="http://purl.org/dc/dcmitype/StillImage"/>
                <dc:title></dc:title>
            </cc:Work>
    </rdf:RDF>
  </metadata>
  <defs
     id="defs11835">
    <linearGradient
       id="linearGradient14449">
      <stop
         id="stop14445"
         offset="0"
         style="stop-color:#6fb4d2;stop-opacity:1" />
      <stop
         id="stop14447"
         offset="1"
         style="stop-color:#397895;stop-opacity:0.96078432" />
    </linearGradient>
    <radialGradient
       gradientUnits="userSpaceOnUse"
       gradientTransform="matrix(1,0,0,1.9998101,-0.0058567,-3.9974478)"
       r="1.0021195"
       fy="8.9966878"
       fx="19.003738"
       cy="8.9966878"
       cx="19.003738"
       id="radialGradient14451"
       xlink:href="#linearGradient14449" />
  </defs>
  <g
     style="display:inline"
     id="layer3">
    <path
       style="fill:#000000;fill-opacity:1"
       d="M 1,19.638243 V 18.332821 10 1.4340833 1 H 6.5169491 21 V 20.360169 21 H 1 Z M 17,13 V 6 H 18.5 20 V 4 2 H 11 2 v 9 9 H 9.5 17 Z m 3,5.5 V 17 h -1 -1 v 1.5 1.5 h 1 1 z M 20,14 v -2 h -1 -1 v 2 2 h 1 1 z M 20,9 V 7 h -1 -1 v 2 2 h 1 1 z"
       id="path14324" />
    <path
       id="rect14371"
       d="M 3 4 L 3 5 L 16 5 L 16 4 L 3 4 z M 3 7 L 3 8 L 16 8 L 16 7 L 3 7 z M 3 10 L 3 11 L 16 11 L 16 10 L 3 10 z M 3 13 L 3 14 L 16 14 L 16 13 L 3 13 z "
       style="opacity:1;fill:#777777;fill-opacity:1;stroke:#000000;stroke-width:0;stroke-miterlimit:4;stroke-dasharray:none;stroke-opacity:1" />
    <path
       id="path14435"
       d="M 17.995762,14.001735 V 12.0052 l 0.340837,-0.0077 c 0.434558,-0.0098 0.905324,-0.0098 1.329407,-2.3e-5 L 20,12.005197 v 1.996536 1.996535 h -1.002119 -1.002119 z"
       style="opacity:1;fill:url(#radialGradient14451);fill-opacity:1;stroke:none;stroke-width:0;stroke-miterlimit:4;stroke-dasharray:none;stroke-opacity:1" />
    <path
       id="path14455"
       d="M 2 2 L 2 4 L 2 5 L 2 7 L 2 8 L 2 10 L 2 11 L 2 13 L 2 14 L 2 20 L 17 20 L 17 14 L 17 7 L 17 6 L 20 6 L 20 4 L 20 2 L 2 2 z M 3 4 L 16 4 L 16 5 L 3 5 L 3 4 z M 3 7 L 16 7 L 16 8 L 3 8 L 3 7 z M 18.197266 7 L 17.998047 7.0058594 L 17.998047 9.0019531 L 17.998047 11 L 18.998047 11 L 20 11 L 20 9.0019531 L 20 7.0039062 L 19.947266 7.0019531 C 19.860479 6.9958938 18.409872 6.99408 18.197266 7 z M 3 10 L 16 10 L 16 11 L 3 11 L 3 10 z M 3 13 L 16 13 L 16 14 L 3 14 L 3 13 z M 17.986328 16.998047 L 17.986328 18.498047 L 17.986328 19.996094 L 18.990234 19.996094 L 19.996094 19.996094 L 19.996094 18.498047 L 19.996094 16.998047 L 18.990234 16.998047 L 17.986328 16.998047 z "
       style="opacity:1;fill:#e0e1df;fill-opacity:1;stroke:none;stroke-width:0;stroke-miterlimit:4;stroke-dasharray:none;stroke-opacity:0.96078431" />
  </g>
</svg>
