<svg version="1.0" xmlns="http://www.w3.org/2000/svg" viewBox="0 0 980.000000 864.000000"
 preserveAspectRatio="xMidYMid meet">

<g transform="translate(0.000000,864.000000) scale(0.100000,-0.100000)" stroke="none">
<path d="M1165 8614 c-576 -101 -1024 -541 -1142 -1121 -17 -83 -18 -218 -18
-2358 0 -2140 1 -2275 18 -2358 91 -448 366 -806 772 -1004 147 -72 377 -133
500 -133 23 0 56 -3 73 -6 l30 -6 -269 -806 c-148 -443 -267 -807 -266 -809 2
-1 718 362 1593 807 l1589 809 2250 3 c2125 3 2255 4 2345 21 583 112 1019
543 1137 1124 17 83 18 218 18 2358 0 2185 -1 2273 -19 2360 -69 332 -244 624
-492 824 -197 158 -406 252 -658 296 -79 13 -501 15 -3735 14 -3079 -1 -3658
-3 -3726 -15z m1109 -2804 c120 -30 227 -92 315 -180 87 -86 140 -171 178
-285 23 -70 27 -96 27 -210 0 -114 -4 -140 -27 -210 -37 -110 -90 -197 -172
-281 -283 -287 -739 -277 -1013 22 -68 74 -120 166 -154 274 -19 63 -23 96
-22 200 0 107 4 137 27 205 76 230 260 405 489 465 100 26 250 26 352 0z
m2800 0 c120 -30 227 -92 315 -180 87 -86 140 -171 178 -285 23 -70 27 -96 27
-210 0 -114 -4 -140 -27 -210 -37 -110 -90 -197 -172 -281 -283 -287 -739
-277 -1013 22 -68 74 -120 166 -154 274 -19 63 -23 96 -22 200 0 107 4 137 27
205 76 230 260 405 489 465 100 26 250 26 352 0z m2800 0 c120 -30 227 -92
315 -180 87 -86 140 -171 178 -285 23 -70 27 -96 27 -210 0 -114 -4 -140 -27
-210 -37 -110 -90 -197 -172 -281 -283 -287 -739 -277 -1013 22 -68 74 -120
166 -154 274 -19 63 -23 96 -22 200 0 107 4 137 27 205 76 230 260 405 489
465 100 26 250 26 352 0z"/>
</g>
</svg>
