<?xml version="1.0" encoding="UTF-8" standalone="no"?>
<svg
        xmlns:dc="http://purl.org/dc/elements/1.1/"
        xmlns:cc="http://creativecommons.org/ns#"
        xmlns:rdf="http://www.w3.org/1999/02/22-rdf-syntax-ns#"
        xmlns="http://www.w3.org/2000/svg"
        version="1.1"
        id="svg5194"
        width="22"
        height="22"
        viewBox="0 0 22 22">
    <metadata
            id="metadata5200">
        <rdf:RDF>
            <cc:Work
                    rdf:about="">
                <dc:format>image/svg+xml</dc:format>
                <dc:type
                        rdf:resource="http://purl.org/dc/dcmitype/StillImage"/>
                <dc:title></dc:title>
            </cc:Work>
    </rdf:RDF>
  </metadata>
  <defs
     id="defs5198" />
  <g
     style="stroke:#000000;stroke-width:0.28676638;stroke-linecap:round;stroke-linejoin:bevel;stroke-miterlimit:4;stroke-dasharray:none;stroke-opacity:1;paint-order:stroke markers fill"
     transform="matrix(0.99434741,0,0,1.0714917,0.029729,-1.14307)"
     id="g6585">
    <path
       transform="matrix(1.2281816,0,0,1.2281816,-29.765415,-0.75542919)"
       style="display:inline;fill:#000000;fill-opacity:1;stroke:#000000;stroke-width:0.23348857;stroke-linecap:round;stroke-linejoin:bevel;stroke-miterlimit:4;stroke-dasharray:none;stroke-opacity:1;paint-order:stroke markers fill"
       d="m 25.406453,17.324726 c -0.03634,-1.64e-4 -0.08878,-0.01179 -0.116536,-0.02584 -0.02775,-0.01404 -0.07142,-0.05664 -0.09704,-0.09466 -0.02562,-0.03802 -0.04658,-0.09656 -0.04658,-0.130089 0,-0.03353 0.01923,-0.09208 0.04274,-0.130113 0.03236,-0.05236 0.08907,-0.09124 0.233598,-0.16014 0.104975,-0.05005 0.253529,-0.12934 0.330121,-0.176208 0.07659,-0.04687 0.205008,-0.138931 0.285369,-0.204583 0.08036,-0.06565 0.21222,-0.190767 0.29302,-0.278033 0.0808,-0.08727 0.214721,-0.260121 0.297604,-0.384123 0.08288,-0.124001 0.196269,-0.322073 0.25197,-0.440159 0.0557,-0.118086 0.139176,-0.324618 0.185499,-0.45896 0.04632,-0.134343 0.106494,-0.345391 0.133714,-0.468996 0.02722,-0.123606 0.0643,-0.312078 0.0824,-0.418827 0.0181,-0.106749 0.04079,-0.269941 0.05043,-0.362649 l 0.01752,-0.16856 -0.383657,-0.383062 c -0.211011,-0.210685 -0.450708,-0.470403 -0.532659,-0.577153 -0.08195,-0.106749 -0.219732,-0.299817 -0.306181,-0.429039 -0.08645,-0.129223 -0.208335,-0.326887 -0.270859,-0.439255 -0.06252,-0.112368 -0.155437,-0.296242 -0.206474,-0.408609 -0.05104,-0.112368 -0.124992,-0.291645 -0.164343,-0.398394 -0.03935,-0.106749 -0.099,-0.290623 -0.132554,-0.408609 -0.03355,-0.117986 -0.07994,-0.311054 -0.103078,-0.4290397 -0.02314,-0.1179859 -0.05325,-0.30186 -0.06691,-0.4086092 -0.01366,-0.1067491 -0.02533,-0.3871571 -0.02594,-0.6231289 -6.11e-4,-0.2363397 0.01083,-0.5253894 0.02548,-0.6435594 0.01462,-0.1179859 0.04947,-0.3248442 0.07744,-0.4596852 0.02797,-0.1348411 0.07823,-0.3369745 0.111691,-0.4491857 0.03346,-0.112211 0.08885,-0.2776977 0.12309,-0.3677482 0.03424,-0.09005 0.109162,-0.2648588 0.166502,-0.3884631 0.05734,-0.1236042 0.159336,-0.3212689 0.226657,-0.4392548 0.06732,-0.1179859 0.177527,-0.2972631 0.244902,-0.3983939 0.06737,-0.1011307 0.179768,-0.2577206 0.249764,-0.3479772 0.06999,-0.090257 0.199579,-0.2475281 0.287964,-0.3494916 0.08839,-0.1019635 0.252637,-0.2721617 0.365005,-0.378218 0.112367,-0.1060561 0.27997,-0.2577382 0.372451,-0.3370709 0.09248,-0.079333 0.308485,-0.2444081 0.480008,-0.3668341 0.171523,-0.122426 0.408442,-0.2803919 0.526488,-0.3510351 0.118045,-0.070643 0.347937,-0.1960304 0.51087,-0.2786381 0.162933,-0.082608 0.388178,-0.1892091 0.500546,-0.2368922 0.112367,-0.047683 0.319226,-0.1300223 0.459685,-0.182976 0.14046,-0.052954 0.365705,-0.1292655 0.500546,-0.1695817 0.134841,-0.040316 0.35549,-0.100977 0.490331,-0.1348022 0.134841,-0.033825 0.373878,-0.084929 0.531192,-0.1135642 0.157315,-0.028635 0.432076,-0.070651 0.610581,-0.093367 0.178505,-0.022717 0.52011,-0.050285 0.759122,-0.061262 0.282187,-0.01296 0.587473,-0.01299 0.870628,-8.17e-5 0.239833,0.01093 0.513469,0.028995 0.608082,0.040146 0.09461,0.011151 0.246309,0.030023 0.337103,0.041938 0.09079,0.011915 0.293791,0.044993 0.451106,0.073506 0.157314,0.028513 0.414738,0.084403 0.572052,0.1241998 0.157315,0.039797 0.433126,0.1206095 0.612914,0.1795835 0.179788,0.058974 0.437212,0.151035 0.572053,0.2045801 0.134841,0.053545 0.357847,0.1507321 0.49557,0.2159706 0.137722,0.065238 0.376759,0.1897325 0.531192,0.2766537 0.154433,0.086921 0.377321,0.2223833 0.495307,0.3010273 0.117986,0.078644 0.31565,0.2212465 0.439255,0.3168941 0.123604,0.095648 0.312075,0.2490309 0.418824,0.3408515 0.106749,0.091821 0.282796,0.2595052 0.391215,0.3726324 0.10842,0.1131271 0.282006,0.3096229 0.385748,0.4366574 0.103743,0.1270348 0.259271,0.3369289 0.345619,0.4664319 0.08635,0.1295029 0.204032,0.3182033 0.261518,0.4193341 0.05749,0.1011307 0.142743,0.2666174 0.189459,0.3677482 0.04671,0.1011307 0.121873,0.2758111 0.167016,0.3881786 0.04514,0.1123675 0.113078,0.3054354 0.150965,0.4290396 0.03789,0.1236043 0.08701,0.3131082 0.109154,0.4211199 0.02215,0.1080118 0.05539,0.3102733 0.07388,0.4494701 0.02187,0.1646838 0.03361,0.3993784 0.03361,0.6719095 0,0.272531 -0.01174,0.5072257 -0.03361,0.6719095 -0.01849,0.1391968 -0.05173,0.3414583 -0.07388,0.4494693 -0.02215,0.108012 -0.07127,0.297516 -0.109154,0.42112 -0.03789,0.123604 -0.105821,0.316672 -0.150965,0.42904 -0.04514,0.112367 -0.120301,0.287048 -0.167016,0.388178 -0.04672,0.101131 -0.131972,0.266618 -0.189459,0.367749 -0.05749,0.10113 -0.175169,0.289831 -0.261518,0.419334 -0.08635,0.129503 -0.241876,0.339397 -0.345619,0.466432 -0.103742,0.127034 -0.277328,0.32353 -0.385748,0.436657 -0.108419,0.113127 -0.284466,0.280947 -0.391215,0.372932 -0.106749,0.09199 -0.285994,0.239041 -0.398321,0.326789 -0.112328,0.08775 -0.29672,0.221594 -0.409761,0.297436 -0.113041,0.07584 -0.306142,0.197515 -0.429112,0.270384 -0.122971,0.07287 -0.333908,0.187623 -0.468749,0.255009 -0.134841,0.06739 -0.35549,0.170486 -0.490331,0.22911 -0.134841,0.05863 -0.433637,0.169231 -0.66399,0.245791 -0.230353,0.07656 -0.547536,0.171547 -0.704851,0.211081 -0.157314,0.03953 -0.405544,0.09536 -0.551622,0.124062 -0.146078,0.0287 -0.408098,0.07032 -0.582268,0.0925 -0.17417,0.02217 -0.514337,0.05087 -0.755927,0.06377 -0.24159,0.0129 -0.57716,0.01766 -0.745712,0.01058 -0.168551,-0.0071 -0.430571,-0.02209 -0.582268,-0.03336 -0.151696,-0.01127 -0.409119,-0.03936 -0.572052,-0.06242 -0.162933,-0.02306 -0.42909,-0.06879 -0.59146,-0.101625 -0.16237,-0.03284 -0.383999,-0.08356 -0.492509,-0.112722 l -0.197291,-0.05302 -0.34514,0.246274 c -0.189826,0.135447 -0.478448,0.326973 -0.641381,0.425609 -0.162933,0.09864 -0.498503,0.281344 -0.745712,0.406017 -0.247208,0.124674 -0.587375,0.28458 -0.755927,0.355348 -0.168551,0.07077 -0.430571,0.174583 -0.582268,0.230699 -0.151696,0.05612 -0.404523,0.142992 -0.561837,0.193057 -0.157315,0.05007 -0.433126,0.131008 -0.612914,0.179874 -0.179788,0.04886 -0.439656,0.112569 -0.577486,0.141564 -0.137829,0.02899 -0.280331,0.05258 -0.316672,0.05242 z m 1.366116,-0.866601 c 0.03258,-0.0081 0.224721,-0.07479 0.426982,-0.14813 0.202262,-0.07334 0.510251,-0.193268 0.684421,-0.266506 0.174169,-0.07324 0.454577,-0.202147 0.623128,-0.286467 0.168552,-0.08432 0.43371,-0.226393 0.589242,-0.315721 0.155531,-0.08933 0.38997,-0.233241 0.520976,-0.319808 0.131006,-0.08657 0.351581,-0.243025 0.490167,-0.347685 0.138586,-0.10466 0.280817,-0.198562 0.316069,-0.208673 0.05034,-0.01444 0.13,-0.0013 0.371154,0.06124 0.168883,0.04379 0.421982,0.103349 0.562441,0.132352 0.14046,0.029 0.374899,0.07066 0.520977,0.09258 0.146078,0.02191 0.389711,0.05124 0.541407,0.06518 0.151696,0.01393 0.524041,0.02459 0.827433,0.02367 0.344853,-10e-4 0.677982,-0.01411 0.888725,-0.03488 0.185407,-0.01827 0.452024,-0.05223 0.592483,-0.07548 0.14046,-0.02324 0.393287,-0.07411 0.561838,-0.113044 0.168551,-0.03893 0.444362,-0.112838 0.612914,-0.164234 0.168551,-0.05139 0.421378,-0.137005 0.561837,-0.190244 0.14046,-0.05324 0.351915,-0.140072 0.469901,-0.192964 0.117986,-0.05289 0.329441,-0.156605 0.4699,-0.230473 0.14046,-0.07387 0.367543,-0.20608 0.504629,-0.293803 0.137087,-0.08772 0.339348,-0.225809 0.44947,-0.30686 0.110122,-0.08105 0.287562,-0.222856 0.394311,-0.315125 0.10675,-0.09227 0.309327,-0.286001 0.450172,-0.430516 0.140846,-0.144514 0.326977,-0.351828 0.413624,-0.460696 0.08665,-0.108868 0.231677,-0.31113 0.322287,-0.44947 0.09061,-0.13834 0.237581,-0.398627 0.326603,-0.578415 0.0906,-0.182982 0.201702,-0.448307 0.252367,-0.602698 0.04978,-0.151697 0.114474,-0.383392 0.143762,-0.5148792 0.02929,-0.1314871 0.0672,-0.3429424 0.08424,-0.4699005 0.01826,-0.1360313 0.03099,-0.38606 0.03099,-0.6087963 0,-0.219333 -0.01274,-0.4728429 -0.03036,-0.6040293 C 40.72996,8.1793136 40.697416,7.9908426 40.674336,7.8848253 40.651257,7.7788082 40.60809,7.6093235 40.578411,7.5081927 40.548731,7.407062 40.48836,7.2277847 40.444252,7.1097988 40.400145,6.9918129 40.30039,6.7723324 40.222575,6.6220642 40.144759,6.4717959 40.011338,6.2427711 39.926081,6.11312 39.840825,5.9834692 39.700906,5.789233 39.61515,5.6814844 39.529393,5.5737356 39.343992,5.3673383 39.203146,5.2228237 39.062301,5.0783091 38.859724,4.884577 38.752974,4.7923082 38.646225,4.7000394 38.468785,4.5582328 38.358663,4.4771827 38.248541,4.3961324 38.04628,4.2580454 37.909193,4.1703226 37.772107,4.0825997 37.545024,3.9503887 37.404564,3.8765204 37.264105,3.8026522 37.05265,3.6989392 36.934664,3.6460474 36.816678,3.5931554 36.605223,3.5063213 36.464763,3.4530826 36.324304,3.3998439 36.071477,3.3143841 35.902926,3.2631719 35.734374,3.2119597 35.472354,3.142157 35.320658,3.1080547 35.168962,3.0739526 34.906941,3.0233085 34.73839,2.9955125 34.569838,2.9677167 34.28943,2.9299416 34.115261,2.911568 33.901284,2.888995 33.613075,2.87815 33.226536,2.878127 c -0.383118,-2.05e-5 -0.676642,0.010881 -0.888725,0.033017 -0.17417,0.018178 -0.455822,0.055448 -0.625894,0.082821 -0.170072,0.027373 -0.432092,0.077856 -0.582268,0.1121838 -0.150175,0.034328 -0.410905,0.1043702 -0.5794,0.1556501 -0.168495,0.05128 -0.412802,0.1328427 -0.542904,0.1812512 -0.130102,0.048409 -0.341603,0.1352895 -0.470003,0.1930684 -0.1284,0.057779 -0.355257,0.1689971 -0.504128,0.247151 -0.148872,0.078154 -0.38728,0.2164488 -0.529797,0.3073222 -0.142517,0.090874 -0.351686,0.2352905 -0.464821,0.3209268 -0.113136,0.085636 -0.325219,0.2628355 -0.471297,0.3937764 -0.146077,0.1309408 -0.344911,0.3245394 -0.441852,0.430219 -0.09694,0.1056798 -0.230815,0.2608232 -0.297499,0.3447631 -0.06668,0.08394 -0.18558,0.2491519 -0.264217,0.3671378 -0.07864,0.1179859 -0.185488,0.2888866 -0.237451,0.3797793 -0.05196,0.090893 -0.132692,0.2471858 -0.179399,0.3473177 -0.04671,0.1001322 -0.117174,0.2648016 -0.156591,0.3659324 -0.03942,0.1011308 -0.09433,0.2609693 -0.122029,0.3551968 -0.0277,0.094227 -0.07191,0.2689079 -0.09824,0.3881786 -0.02633,0.1192708 -0.05961,0.3087931 -0.07394,0.4211606 -0.01434,0.1123675 -0.02616,0.3835818 -0.02627,0.6026985 -1.22e-4,0.2191166 0.01156,0.4857341 0.02595,0.5924832 0.01439,0.1067491 0.04907,0.3044138 0.07708,0.4392548 0.02801,0.1348413 0.09175,0.3676403 0.141642,0.5173313 0.04989,0.149691 0.137496,0.374567 0.194674,0.499724 0.05718,0.125158 0.150538,0.310673 0.20747,0.412255 0.05693,0.101583 0.158584,0.267439 0.225895,0.36857 0.06731,0.101131 0.164,0.239037 0.214862,0.306457 0.05086,0.06742 0.195722,0.238368 0.321908,0.379883 0.126187,0.141516 0.343822,0.359538 0.483633,0.484494 0.148953,0.133126 0.265404,0.254235 0.281256,0.292507 0.02207,0.05328 0.02259,0.11836 0.0029,0.353155 -0.01331,0.158313 -0.04296,0.396497 -0.06589,0.529299 -0.02293,0.132801 -0.064,0.335063 -0.09126,0.44947 -0.02726,0.114407 -0.08565,0.31374 -0.129752,0.442963 -0.04411,0.129222 -0.113936,0.313096 -0.155179,0.408609 -0.04124,0.09551 -0.112448,0.242611 -0.158231,0.326887 -0.04578,0.08428 -0.131348,0.227492 -0.190142,0.31826 -0.05879,0.09077 -0.160076,0.227715 -0.22507,0.30433 l -0.11817,0.139298 z"
       id="path6543" />
    <path
       style="opacity:1;fill:#efefee;fill-opacity:1;stroke:#000000;stroke-width:0.28676638;stroke-linecap:round;stroke-linejoin:bevel;stroke-miterlimit:4;stroke-dasharray:none;stroke-opacity:1;paint-order:stroke markers fill"
       d="M 10.882154,2.6886353 C 9.3578986,2.675833 7.8356129,3.0181135 6.4450814,3.6368775 4.5407753,4.4779865 2.857182,5.9726189 2.082984,7.9362176 1.8119835,8.6222705 1.6343292,9.355527 1.6750685,10.097571 c -0.015102,0.535718 0.00688,1.07603 0.1644832,1.592163 0.3189857,1.222616 0.9903581,2.347788 1.9079722,3.215873 0.1986365,0.198561 0.3985267,0.395863 0.597704,0.59388 -0.020614,0.824 -0.1868135,1.652511 -0.486206,2.419495 -0.2024348,0.534217 -0.5012956,1.026037 -0.8618164,1.467163 -0.079711,0.149605 0.1282759,0.217329 0.232605,0.142212 1.4768599,-0.497907 2.8945337,-1.188309 4.1464234,-2.122192 0.1364872,-0.105394 0.3068137,-0.205216 0.4862672,-0.124939 0.8402662,0.197428 1.7006953,0.384177 2.5726799,0.389129 0.571776,0.0087 1.153222,0.03423 1.717666,-0.04982 0.240808,-0.07102 0.52793,-0.02832 0.786314,-0.07661 2.056542,-0.344181 4.063526,-1.248796 5.519349,-2.768189 0.934834,-0.943559 1.617587,-2.158929 1.86413,-3.468804 C 20.492652,10.269816 20.447867,9.1851864 20.088747,8.1907939 19.704442,7.074012 19.012333,6.0755683 18.134815,5.2887235 17.051382,4.2464443 15.673936,3.541769 14.238416,3.1230225 13.215833,2.8264029 12.152989,2.6727578 11.087659,2.6886353 c -0.0685,-2.816e-4 -0.137003,-2.77e-4 -0.205505,0 z"
       id="path6580" />
  </g>
</svg>
