<?xml version="1.0" encoding="utf-8"?>
<svg version="1.1" id="Ebene_1" xmlns="http://www.w3.org/2000/svg" xmlns:xlink="http://www.w3.org/1999/xlink" viewBox="0 0 33 33" style="enable-background:new 0 0 33 33;" xml:space="preserve">
<style type="text/css">
	.st0{fill-rule:evenodd;clip-rule:evenodd;fill:#005386;}
</style>
  <g id="Symbols">
	<g id="DESKTOP_menu_notif_final" transform="translate(-71.000000, -13.000000)">
		<g id="MENU">
			<g id="logo" transform="translate(71.000000, 13.000000)">
				<path id="Fill-1" class="st0" d="M15.2,0.4c2.8-0.1,6.1,0.5,6.7,2.4c1,3.2-4.1,7.9-8.5,10.2c-1.1,0.6-1.7,0.7-2,0.7
					c-0.3,0-0.3-0.3-0.2-0.5c0.2-0.3,0.9-1,1.8-1.8c5-3.9,6.6-6.8,5.7-7.9c-0.6-0.7-3.1-1.3-5.8-1.3c-0.7,0-2.6,0.2-2.8-0.5
					C10,1.2,12.5,0.5,15.2,0.4"/>
        <path id="Fill-3" class="st0" d="M9.4,15.2c2.4-0.1,5.3,0.3,6.9,1.5c0.8,0.6,1.4,1.8,1,3.1c-0.9,3.7-4.4,8.2-12.2,11.6
					c-2.5,1.1-4.4,1.5-4.8,1.2c-0.4-0.3,0.8-2.8,1.2-3.6c1.2-2.6,2.8-5.2,4.3-7.5c0.6-0.9,1.4-2.4,2.2-2.2C8.7,19.4,7.9,21,7.3,22
					c-0.9,1.7-3.4,6.4-2.6,6.7c1.8,0.6,10.3-5.9,9.1-9.5c-0.6-1.7-4.3-1.8-6.6-1.8c-1.1,0-3.4,0.3-3.5-0.6
					C3.6,16.1,7.2,15.3,9.4,15.2"/>
        <path id="Fill-5" class="st0" d="M27.8,11.2c1.4,0.3,2.6,0.5,2.9,1.1c0.3,0.7-1.3,0.7-2,0.7c-3.8,0.1-6,0.1-6.2,1.4
					c-0.1,1.6,1.6,3.3,3.3,5.6c1.6,2.1,3.4,4.2,2.9,6.2c-0.6,2.4-3.6,3-6.5,3c-2.7,0-5.3-0.4-6.4-0.6c-1.4-0.3-1.1-0.9-0.8-1.1
					c0.4-0.2,2.7-0.2,4.3-0.3C20.6,27,24.4,27,25,26c0.7-1.2-1.1-3.2-2.7-5.4c-2-2.7-4.3-5.4-3.1-7.5C20.8,10.6,25.3,10.7,27.8,11.2
					"/>
			</g>
		</g>
	</g>
</g>
</svg>
