<svg viewBox="0 0 20 20" fill="none" xmlns="http://www.w3.org/2000/svg">
  <path d="M3 18C1.89543 18 1 17.1046 1 16L1 10C1 7.23858 3.23858 5 6 5L17 5C18.1046 5 19 5.89543 19 7L19 16C19 17.1046 18.1046 18 17 18L3 18Z" fill="url(#paint0_linear_468_25090)"/>
  <path d="M1 3C1 2.44772 1.44772 2 2 2H8.46482C8.79917 2 9.1114 2.1671 9.29687 2.4453L11 5L9.29687 7.5547C9.1114 7.8329 8.79917 8 8.46482 8H1V3Z" fill="#E09F00"/>
  <path d="M1 10C1 8.89543 1.89543 8 3 8L1 8L1 10Z" fill="#E09F00"/>
  <defs>
    <linearGradient id="paint0_linear_468_25090" x1="1.92308" y1="11.5" x2="20.3846" y2="11.5" gradientUnits="userSpaceOnUse">
      <stop stop-color="#FFCF4D"/>
      <stop offset="1" stop-color="#F4B509"/>
    </linearGradient>
  </defs>
</svg>
