<svg viewBox="0 0 18 19" fill="none" xmlns="http://www.w3.org/2000/svg">
  <path d="M17 18V19L18 18H17ZM1 18H0L1 19V18ZM17 7H18L17.53 6.152L17 7ZM1 7L0.470001 6.152L0 7H1ZM9 12L8.47 12.848L9 13.1792L9.53 12.848L9 12ZM9 2L9.53 1.152L9 0.820753L8.47 1.152L9 2ZM17 17H1V19H17V17ZM0 7V18H2V7H0ZM18 18V7H16V18H18ZM16.47 6.152L8.47 11.152L9.53 12.848L17.53 7.848L16.47 6.152ZM9.53 11.152L1.53 6.152L0.470001 7.848L8.47 12.848L9.53 11.152ZM17.53 6.152L9.53 1.152L8.47 2.848L16.47 7.848L17.53 6.152ZM8.47 1.152L0.470001 6.152L1.53 7.848L9.53 2.848L8.47 1.152Z" fill="currentColor"/>
</svg>
