<svg viewBox="0 0 20 21" fill="none" xmlns="http://www.w3.org/2000/svg">
  <path d="M1 15H0.1V15.9H1V15ZM1 1V0.1H0.1V1H1ZM19 1H19.9V0.1H19V1ZM19 15V15.9H19.9V15H19ZM9 15V14.1H8.62721L8.3636 14.3636L9 15ZM4 15H4.9V14.1H4V15ZM4 20H3.1L4.6364 20.6364L4 20ZM1.9 15V1H0.1V15H1.9ZM1 1.9H19V0.1H1V1.9ZM18.1 1V15H19.9V1H18.1ZM19 14.1H9V15.9H19V14.1ZM3.1 15V20H4.9V15H3.1ZM8.3636 14.3636L3.3636 19.3636L4.6364 20.6364L9.6364 15.6364L8.3636 14.3636ZM1 15.9H4V14.1H1V15.9Z" fill="currentColor"/>
  <path d="M4 6H16" stroke="currentColor" stroke-width="1.8"/>
  <path d="M4 10H14" stroke="currentColor" stroke-width="1.8"/>
</svg>
