<?xml version="1.0" standalone="no"?>
<svg xmlns:xlink="http://www.w3.org/1999/xlink" viewBox="0 0 1024 1024" xmlns="http://www.w3.org/2000/svg" version="1.0">
    <path id="s-Path_1-29402" d="M 907.4927 631.3448 C 917.36554 624.9565 925.0606 616.6808 930.57764
        606.51746 C 936.09485 596.3544 938.85333 585.1749 938.85333 572.9791 L 938.85333 154.83696 C 938.85333 135.67213
        932.0295 119.265884 918.3817 105.61817 C 904.7341 91.97049 888.3278 85.146645 869.163 85.146645 L 154.83698
        85.146645 C 135.67215 85.146645 119.26587 91.97049 105.61818 105.61817 C 91.97048 119.265884 85.14664 135.67213
        85.14664 154.83696 L 85.14664 572.9791 C 85.14664 585.1749 87.90521 596.3544 93.422356 606.51746 C 98.939514
        616.6808 106.6345 624.9565 116.507286 631.3448 L 215.81604 694.93713 L 215.81604 938.85333 L 808.18396 938.85333
        L 808.18396 694.93713 z M 285.50638 869.163 L 285.50638 433.59836 L 437.95404 325.5783 C 458.8611 310.47876
        483.54312 302.92896 512.0 302.92896 C 540.4569 302.92896 565.1389 310.47876 586.046 325.5783 L 738.49365
        433.59836 L 738.49365 869.163 L 285.50638 869.163 z M 808.18396 612.18 L 808.18396 481.5105 L 863.06506
        519.84015 C 867.7111 523.32465 871.3409 527.6803 873.9542 532.90704 C 876.5676 538.1339 877.8743 543.3606
        877.8743 548.58746 C 877.8743 560.7832 872.6475 570.36566 862.1939 577.3347 z M 215.81604 481.5105 L 215.81604
        612.18 L 161.80602 577.3347 C 151.35248 570.36566 146.12567 560.7832 146.12567 548.58746 C 146.12567 543.3606
        147.43239 538.1339 150.04578 532.90704 C 152.65915 527.6803 156.28888 523.32465 160.9349 519.84015 z"/>
</svg>