<svg viewBox="0 0 14 16" fill="none" xmlns="http://www.w3.org/2000/svg">
    <path d="M1 15V13L7 9L13 13V15H1Z" fill="currentColor"/>
    <path d="M1 13H0L0.4453 12.1679L1 13ZM1 15V16H0V15H1ZM13 15H14V16H13V15ZM13 13L13.5547 12.1679L14 13H13ZM7 9L6.4453 8.16795L7 7.79815L7.5547 8.16795L7 9ZM2 13V15H0V13H2ZM1 14H13V16H1V14ZM12 15V13H14V15H12ZM12.4453 13.8321L6.4453 9.83205L7.5547 8.16795L13.5547 12.1679L12.4453 13.8321ZM7.5547 9.83205L1.5547 13.8321L0.4453 12.1679L6.4453 8.16795L7.5547 9.83205Z" fill="currentColor"/>
    <path d="M4 7V1H10V7H4Z" fill="currentColor"/>
    <path d="M4 1H3L4 0V1ZM4 7V8L3 7H4ZM10 7H11L10 8V7ZM10 1V0L11 1H10ZM5 1V7H3V1H5ZM4 6H10V8H4V6ZM9 7V1H11V7H9ZM10 2H4V0H10V2Z" fill="currentColor"/>
</svg>