<svg viewBox="0 0 30 30" fill="none" xmlns="http://www.w3.org/2000/svg">
    <path d="M9 22V23H8V22H9ZM9 20H8L8.4453 19.1679L9 20ZM21 22H22V23H21V22ZM21 20L21.5547 19.1679L22 20H21ZM15 16L14.4453 15.1679L15 14.7981L15.5547 15.1679L15 16ZM10 20V22H8V20H10ZM9 21H21V23H9V21ZM20 22V20H22V22H20ZM20.4453 20.8321L14.4453 16.8321L15.5547 15.1679L21.5547 19.1679L20.4453 20.8321ZM15.5547 16.8321L9.5547 20.8321L8.4453 19.1679L14.4453 15.1679L15.5547 16.8321Z" fill="currentColor"/>
    <path d="M12 14V15L11 14H12ZM12 8H11L12 7V8ZM18 14H19L18 15V14ZM18 8V7L19 8H18ZM13 8V14H11V8H13ZM12 13H18V15H12V13ZM17 14V8H19V14H17ZM18 9H12V7H18V9Z" fill="currentColor"/>
</svg>
