<svg viewBox="0 0 30 30" fill="none" xmlns="http://www.w3.org/2000/svg">
    <path d="M16.5 20.5L13 17L9.5 13.5H13.5L18.5 9.5L20.5 11.5L16.5 16.5V20.5Z" fill="currentColor"/>
    <path d="M16.5 20.5L15.7929 21.2071L17.5 20.5H16.5ZM9.5 13.5V12.5L8.79289 14.2071L9.5 13.5ZM13.5 13.5V14.5H13.8508L14.1247 14.2809L13.5 13.5ZM16.5 16.5L15.7191 15.8753L15.5 16.1492V16.5H16.5ZM12.2929 17.7071L15.7929 21.2071L17.2071 19.7929L13.7071 16.2929L12.2929 17.7071ZM13.7071 16.2929L10.2071 12.7929L8.79289 14.2071L12.2929 17.7071L13.7071 16.2929ZM12.2929 16.2929L7.29289 21.2929L8.70711 22.7071L13.7071 17.7071L12.2929 16.2929ZM17.8753 8.71913L12.8753 12.7191L14.1247 14.2809L19.1247 10.2809L17.8753 8.71913ZM19.7191 10.8753L15.7191 15.8753L17.2809 17.1247L21.2809 12.1247L19.7191 10.8753ZM13.5 12.5H9.5V14.5H13.5V12.5ZM15.5 16.5V20.5H17.5V16.5H15.5ZM21.2071 10.7929L19.2071 8.79289L17.7929 10.2071L19.7929 12.2071L21.2071 10.7929ZM19.2071 8.79289L17.7071 7.29289L16.2929 8.70711L17.7929 10.2071L19.2071 8.79289ZM19.7929 12.2071L21.2929 13.7071L22.7071 12.2929L21.2071 10.7929L19.7929 12.2071Z" fill="currentColor"/>
</svg>
