<?xml version="1.0" standalone="no"?>
<svg xmlns:xlink="http://www.w3.org/1999/xlink" viewBox="0 0 1024 1024" xmlns="http://www.w3.org/2000/svg" version="1.0">
    <path d="M 400.6821 756.0495 q -19.164825 0.0 -36.151855 6.969055 t -29.618378 19.600403 t -20.03598 29.182861 t
        -7.404602 35.71631 t 7.404602 35.71631 t 19.600433 29.1828 t 28.747253 19.600403 t 35.71631 6.969055 t 35.716278
        -6.969055 t 29.18283 -19.600403 t 19.600403 -29.1828 t 6.969055 -35.71631 q 0.0 -20.907104 -8.711304 -39.200867
        t -23.520477 -30.489502 l 40.07196 -104.53552 q -32.23181 -6.969055 -56.623413 -21.77826 z M 767.42755 803.0905
        q -11.324707 20.907104 -11.324707 44.427612 q 0.0 19.164856 7.404663 35.71631 t 19.600342 29.1828 t 28.747314
        19.600403 t 35.71631 6.969055 t 35.71631 -6.969055 t 29.1828 -19.600403 t 19.600403 -29.1828 t 6.969055
        -35.71631 t -6.969055 -35.71631 t -19.600403 -28.747314 t -29.1828 -19.600342 t -35.71631 -7.404663 q -18.293701
        0.0 -34.845215 6.969055 l -128.92712 -152.44763 q -19.164795 22.649353 -46.16986 39.200806 z M 253.46129 523.458
        q -12.195816 -19.164856 -32.231796 -30.489502 t -44.427597 -11.3246765 q -19.16484 0.0 -35.71631 7.4045715 t
        -28.747253 19.600403 t -19.60041 28.747253 t -7.404602 35.71631 t 7.404602 35.71631 t 19.60041 29.182861 t
        28.747253 19.600403 t 35.71631 6.969055 q 35.716293 0.0 60.97905 -23.085022 t 29.618378 -57.929993 l 94.08197
        -23.520508 q -11.3246765 -26.133911 -13.938049 -59.236816 z M 538.32056 616.6689 q 27.005005 0.0 50.96106
        -10.453613 t 41.3786 -27.87616 t 27.87616 -41.37854 t 10.453552 -50.96112 t -10.453552 -50.96106 t -27.87616
        -41.37863 t -41.3786 -27.87616 t -50.96106 -10.453552 t -50.96109 10.453552 t -41.37863 27.87616 t -27.87613
        41.37863 t -10.453552 50.96106 t 10.453552 50.96112 t 27.87613 41.37854 t 41.37863 27.87616 t 50.96109 10.453613
        z M 538.32056 425.02042 q 25.262756 0.0 43.12091 17.858124 t 17.858093 43.12091 t -17.858093 43.12091 t
        -43.12091 17.858154 t -43.12091 -17.858154 t -17.858154 -43.12091 t 17.858154 -43.12091 t 43.12091 -17.858124 z
        M 847.5715 381.46393 q 19.164856 0.0 35.71631 -6.969055 t 29.1828 -19.600372 t 19.600403 -29.182861 t 6.969055
        -35.716278 t -6.969055 -35.71631 t -19.600403 -28.747269 t -29.1828 -19.600403 t -35.71631 -7.404602 t -35.71631
        7.404602 t -28.747314 19.600403 t -19.600342 28.747269 t -7.404663 35.71631 q 0.0 10.453552 2.6134033 20.907104
        l -76.65936 47.91211 q 20.907104 23.520477 32.23181 51.396606 l 76.65936 -47.91211 q 24.391602 19.164856
        56.623413 19.164856 z M 365.83694 226.40294 q 14.809204 -21.778244 14.809204 -49.654373 q 0.0 -19.16484
        -6.9690247 -35.71631 t -19.600433 -29.182823 t -29.1828 -19.60041 t -35.71631 -6.9690323 t -35.716293 6.9690323
        t -28.747284 19.60041 t -19.600403 29.182823 t -7.4046173 35.71631 t 7.4046173 35.716293 t 19.600403 29.18283 t
        28.747284 19.600418 t 35.716293 6.969055 q 13.938049 0.0 28.747253 -4.355652 l 77.53052 94.953094 q 20.907104
        -23.520508 47.040985 -39.200836 z"/>
</svg>