<svg width="22" height="22" xmlns="http://www.w3.org/2000/svg" xmlns:xlink="http://www.w3.org/1999/xlink" version="1.1">
 <metadata id="metadata821">image/svg+xml</metadata>
 <defs id="defs819">
  <linearGradient id="linearGradient4542">
   <stop stop-color="#9bdbfa" offset="0" id="stop4538"/>
   <stop stop-color="#36657d" offset="1" id="stop4540"/>
  </linearGradient>
  <linearGradient xlink:href="#linearGradient4542" id="linearGradient4593" x1="0.13158" y1="0.18421" x2="0.81579" y2="0.86842"/>
 </defs>
 <g>
  <title>Layer 1</title>
  <g stroke="null" display="inline" id="layer1">
   <circle stroke="#000000" fill="url(#linearGradient4593)" stroke-width="0.57948" stroke-miterlimit="4" id="path829" cy="10.64188" cx="6.12917" r="5.69755"/>
   <circle stroke="#000000" fill="none" stroke-width="0.8" stroke-miterlimit="4" id="path4583" cx="6.12917" cy="10.64188" r="3.04957"/>
   <rect stroke="null" fill="#000000" stroke-width="0.6896" stroke-miterlimit="4" id="rect5177" width="0.50044" height="9.8625" x="5.87895" y="5.71062"/>
   <rect stroke="null" transform="matrix(0 -0.616406 0.625551 0 7.7546 1.22742)" fill="#000000" stroke-width="0.6896" stroke-miterlimit="4" id="rect5177-5" width="0.8" height="16" x="-15.67313" y="-10.5984"/>
  </g>
  <g stroke="null" display="inline" id="svg_5">
   <circle stroke="#000000" fill="url(#linearGradient4593)" stroke-width="0.57948" stroke-miterlimit="4" id="svg_1" cy="15.71037" cx="8.08123" r="5.01262"/>
   <circle stroke="#000000" fill="none" stroke-width="0.8" stroke-miterlimit="4" id="svg_2" cx="8.08123" cy="15.71037" r="2.68297"/>
   <rect stroke="null" fill="#000000" stroke-width="0.6896" stroke-miterlimit="4" id="svg_3" width="0.44329" height="8.67688" x="7.85958" y="11.37193"/>
   <rect stroke="null" transform="matrix(0 -0.542305 0.55411 0 7.1686 2.3412)" fill="#000000" stroke-width="0.6896" stroke-miterlimit="4" id="svg_4" width="0.8" height="16" x="-25.0525" y="-6.35299"/>
  </g>
  <g stroke="null">
   <path stroke="null" d="m20.52467,19.55578c0.15952,0 0.31905,0 0.47857,-0.07917c0.15952,-0.07917 0.31905,-0.15833 0.47857,-0.31667c0.15952,-0.15833 0.23929,-0.31667 0.31905,-0.475s0.07976,-0.31667 0.07976,-0.475s0,-0.31667 -0.07976,-0.475s-0.15952,-0.31667 -0.31905,-0.475l-5.025,-4.9875c0.39881,-0.63333 0.71786,-1.26667 0.95714,-1.97917s0.31905,-1.425 0.31905,-2.21667c0,-1.02917 -0.15952,-1.97917 -0.55833,-2.92917s-0.95714,-1.6625 -1.59524,-2.375c-0.6381,-0.7125 -1.51548,-1.1875 -2.39286,-1.58333s-1.91429,-0.63333 -2.95119,-0.63333s-1.99405,0.15833 -2.95119,0.55417c-0.87738,0.39583 -1.675,0.95 -2.39286,1.58333s-1.19643,1.50417 -1.59524,2.375s-0.55833,1.9 -0.55833,2.92917s0.15952,1.97917 0.55833,2.92917s0.95714,1.6625 1.59524,2.375c0.71786,0.7125 1.51548,1.1875 2.39286,1.58333s1.91429,0.55417 2.95119,0.55417c0.79762,0 1.51548,-0.07917 2.23333,-0.31667c0.71786,-0.2375 1.35595,-0.55417 1.99405,-0.95l5.025,4.9875c0.15952,0.15833 0.31905,0.2375 0.47857,0.31667c0.15952,0.07917 0.39881,0.07917 0.55833,0.07917zm-10.28929,-17.41668c0.79762,0 1.59524,0.15833 2.3131,0.475s1.35595,0.7125 1.91429,1.26667s0.95714,1.1875 1.27619,1.9s0.47857,1.50417 0.47857,2.29584s-0.15952,1.58333 -0.47857,2.29584s-0.71786,1.34583 -1.27619,1.9s-1.19643,0.95 -1.91429,1.26667c-0.71786,0.31667 -1.51548,0.475 -2.3131,0.475s-1.59524,-0.15833 -2.3131,-0.475s-1.35595,-0.7125 -1.91429,-1.26667s-0.95714,-1.1875 -1.27619,-1.9s-0.47857,-1.50417 -0.47857,-2.29584s0.15952,-1.58333 0.47857,-2.29584s0.71786,-1.34583 1.27619,-1.9s1.19643,-0.95 1.91429,-1.26667s1.51548,-0.475 2.3131,-0.475z"/>
  </g>
 </g>
</svg>