<?xml version="1.0" standalone="no"?>
<!DOCTYPE svg PUBLIC "-//W3C//DTD SVG 20010904//EN"
 "http://www.w3.org/TR/2001/REC-SVG-20010904/DTD/svg10.dtd">
<svg version="1.0" xmlns="http://www.w3.org/2000/svg"
 width="20.000000pt" height="20.000000pt" viewBox="0 0 202.000000 186.000000"
 preserveAspectRatio="xMidYMid meet">

<g transform="translate(0.000000,186.000000) scale(0.100000,-0.100000)" stroke="none">
<path d="M333 1769 c-97 -28 -154 -97 -161 -190 -6 -78 17 -138 69 -183 116
-99 301 -52 346 89 l10 30 444 3 444 2 61 -30 c197 -97 192 -361 -8 -451 -53
-24 -54 -24 -558 -29 l-505 -5 -50 -27 c-245 -130 -245 -454 0 -578 l70 -35
334 -3 333 -3 -82 -85 c-57 -58 -80 -89 -76 -100 3 -8 6 -18 6 -20 0 -2 10 -4
23 -4 26 0 257 225 257 250 0 21 -231 250 -252 250 -10 0 -22 -10 -29 -21 -10
-19 -3 -30 72 -105 65 -65 79 -85 66 -89 -9 -4 -155 -5 -324 -3 -263 3 -314 6
-346 21 -106 47 -162 129 -162 237 1 96 50 175 140 223 39 22 51 22 545 27
l505 5 61 28 c70 32 131 91 166 157 17 34 24 66 27 128 3 77 1 88 -28 147 -38
77 -99 134 -177 163 -54 21 -69 22 -505 22 l-449 0 -6 28 c-7 28 -47 88 -74
109 -49 39 -134 58 -187 42z m135 -95 c96 -74 69 -222 -47 -254 -115 -31 -221
94 -167 198 16 30 53 66 76 75 42 15 104 6 138 -19z"/>
<path d="M1599 606 c-63 -17 -103 -51 -135 -114 -89 -177 92 -370 274 -292 94
41 138 114 130 221 -10 132 -138 220 -269 185z m147 -97 c102 -95 46 -252 -91
-252 -145 0 -196 186 -72 264 45 28 127 22 163 -12z"/>
</g>
</svg>
