<svg version="1.1" xmlns="http://www.w3.org/2000/svg" xmlns:xlink="http://www.w3.org/1999/xlink" viewBox="0 0 24 24"
>
    <path d="M22.3,24c0.2,0,0.4,0,0.6-0.1c0.2-0.1,0.4-0.2,0.6-0.4c0.2-0.2,0.3-0.4,0.4-0.6s0.1-0.4,0.1-0.6s0-0.4-0.1-0.6
	s-0.2-0.4-0.4-0.6l-6.3-6.3c0.5-0.8,0.9-1.6,1.2-2.5s0.4-1.8,0.4-2.8c0-1.3-0.2-2.5-0.7-3.7s-1.2-2.1-2-3c-0.8-0.9-1.9-1.5-3-2
	S10.7,0,9.4,0S6.9,0.2,5.7,0.7c-1.1,0.5-2.1,1.2-3,2s-1.5,1.9-2,3S0,8.1,0,9.4s0.2,2.5,0.7,3.7s1.2,2.1,2,3c0.9,0.9,1.9,1.5,3,2
	s2.4,0.7,3.7,0.7c1,0,1.9-0.1,2.8-0.4c0.9-0.3,1.7-0.7,2.5-1.2l6.3,6.3c0.2,0.2,0.4,0.3,0.6,0.4C21.8,24,22.1,24,22.3,24z M9.4,2
	c1,0,2,0.2,2.9,0.6s1.7,0.9,2.4,1.6s1.2,1.5,1.6,2.4s0.6,1.9,0.6,2.9s-0.2,2-0.6,2.9s-0.9,1.7-1.6,2.4s-1.5,1.2-2.4,1.6
	c-0.9,0.4-1.9,0.6-2.9,0.6s-2-0.2-2.9-0.6s-1.7-0.9-2.4-1.6s-1.2-1.5-1.6-2.4s-0.6-1.9-0.6-2.9s0.2-2,0.6-2.9s0.9-1.7,1.6-2.4
	S5.6,3,6.5,2.6S8.4,2,9.4,2z"/>
</svg>
