<?xml version="1.0" encoding="UTF-8" standalone="no"?>
<svg
   width="24"
   height="24"
   viewBox="0 0 24 24"
   xmlns="http://www.w3.org/2000/svg"
>
  <path d="M1.2,19.1h7.1v-2.4H1.2V19.1z M1.2,4.8v2.4h21.4V4.8H1.2z M1.2,13.2h14.3v-2.4H1.2V13.2z" />
  <path
   d="M 18.456071,15.54627 H 17.58707 v 0.869 h 0.869001 z m 1.738,0 H 19.32507 v 0.869 h 0.869001 z m 1.737999,0 h -0.869 v 0.869 h 0.869 z m 0.869,-3.0415 h -0.4345 v -0.869 h -0.869 v 0.869 h -3.475999 v -0.869 h -0.869 v 0.869 h -0.4345 c -0.482294,0 -0.864655,0.39105 -0.864655,0.869 l -0.0043,6.082998 c 0,0.47795 0.386705,0.869 0.868998,0.869 h 6.083 c 0.47795,0 0.869,-0.39105 0.869,-0.869 V 13.37377 c 0,-0.47795 -0.39105,-0.869 -0.869,-0.869 z m 0,6.951998 H 16.718071 V 14.67727 h 6.082999 z"
   style="stroke-width:0.4345" />
</svg>
