<?xml version="1.0" encoding="UTF-8" standalone="no"?>
<svg
   width="24"
   height="24"
   viewBox="0 0 24 24"
   xmlns="http://www.w3.org/2000/svg"
>
  <path d="M1.2,4.8h7.1v2.4H1.2V4.8z M1.2,19.1v-2.4h21.4v2.4H1.2z M1.2,10.8h14.3v2.4H1.2V10.8z" />
  <path
   d="m 18.404402,7.2616924 h -0.869001 v 0.8689999 h 0.869001 z m 1.738,0 h -0.869001 v 0.8689999 h 0.869001 z m 1.737999,0 h -0.869 v 0.8689999 h 0.869 z m 0.869,-3.0415002 h -0.4345 V 3.3511928 h -0.869 V 4.2201922 H 17.969902 V 3.3511928 h -0.869 v 0.8689994 h -0.4345 c -0.482294,0 -0.864655,0.3910505 -0.864655,0.8690005 l -0.0043,6.0829983 c 0,0.47795 0.386705,0.869 0.868998,0.869 h 6.083 c 0.47795,0 0.869,-0.39105 0.869,-0.869 V 5.0891927 c 0,-0.47795 -0.39105,-0.8690005 -0.869,-0.8690005 z m 0,6.9519988 H 16.666402 V 6.3926923 h 6.082999 z"
   style="stroke-width:0.4345" />
</svg>
