<?xml version="1.0" encoding="utf-8"?>
<!-- Generator: Adobe Illustrator 24.0.2, SVG Export Plug-In . SVG Version: 6.00 Build 0)  -->
<svg version="1.1" xmlns="http://www.w3.org/2000/svg" xmlns:xlink="http://www.w3.org/1999/xlink" x="0px" y="0px"
     viewBox="0 0 1024 1024" style="enable-background:new 0 0 1024 1024;" xml:space="preserve">
	<path d="M518.3,163.1c-2.7-3.5-7.8-4.1-11.2-1.4c-0.5,0.4-1,0.9-1.4,1.4l-112,141.7c-4.1,5.2-0.4,12.9,6.3,12.9h74.1v338.4
		c0,4.4,3.6,8,8,8h60c4.4,0,8-3.6,8-8V317.8H624c6.7,0,10.4-7.7,6.3-12.9L518.3,163.1z M878,626h-60c-4.4,0-8,3.6-8,8v154H214V634
		c0-4.4-3.6-8-8-8h-60c-4.4,0-8,3.6-8,8v198c0,17.7,14.3,32,32,32h684c17.7,0,32-14.3,32-32V634C886,629.6,882.4,626,878,626z"/>
</svg>
