<svg xmlns="http://www.w3.org/2000/svg" viewBox="0 0 24 24" width="24" height="24">
    <path stroke="null" id="svg_1" d="m3.65331,10.69308c1.31505,0 2.38422,-1.06917 2.38422,-2.38422s-1.06917,-2.38422 -2.38422,-2.38422s-2.38422,1.06917 -2.38422,2.38422s1.06917,2.38422 2.38422,2.38422zm16.68954,0c1.31505,0 2.38422,-1.06917 2.38422,-2.38422s-1.06917,-2.38422 -2.38422,-2.38422s-2.38422,1.06917 -2.38422,2.38422s1.06917,2.38422 2.38422,2.38422zm1.19211,1.19211l-2.38422,0c-0.65566,0 -1.24799,0.2645 -1.68013,0.69291c1.50131,0.8233 2.56676,2.30971 2.79773,4.07553l2.45873,0c0.65939,0 1.19211,-0.53272 1.19211,-1.19211l0,-1.19211c0,-1.31505 -1.06917,-2.38422 -2.38422,-2.38422zm-9.53688,0c2.30599,0 4.17239,-1.8664 4.17239,-4.17239s-1.8664,-4.17239 -4.17239,-4.17239s-4.17239,1.8664 -4.17239,4.17239s1.8664,4.17239 4.17239,4.17239zm2.86106,1.19211l-0.3092,0c-0.77487,0.37253 -1.63543,0.59606 -2.55186,0.59606s-1.77326,-0.22352 -2.55186,-0.59606l-0.3092,0c-2.36932,0 -4.2916,1.92228 -4.2916,4.2916l0,1.0729c0,0.98722 0.80095,1.78817 1.78817,1.78817l10.72899,0c0.98722,0 1.78817,-0.80095 1.78817,-1.78817l0,-1.0729c0,-2.36932 -1.92228,-4.2916 -4.2916,-4.2916zm-8.33359,-0.4992c-0.43214,-0.42841 -1.02447,-0.69291 -1.68013,-0.69291l-2.38422,0c-1.31505,0 -2.38422,1.06917 -2.38422,2.38422l0,1.19211c0,0.65939 0.53272,1.19211 1.19211,1.19211l2.455,0c0.2347,-1.76581 1.30015,-3.25223 2.80146,-4.07553z"/>
</svg>
