<svg version="1.1" xmlns="http://www.w3.org/2000/svg" xmlns:xlink="http://www.w3.org/1999/xlink" viewBox="0 0 24 24" xml:space="preserve">
<path class="st0" d="M13.3,13.9v5l1.7-0.1c0.8,0,1.2,1,0.6,1.6l-3,3c-0.4,0.4-0.9,0.4-1.3,0l-3-3c-0.6-0.6-0.2-1.5,0.6-1.5l1.7,0.1
	v-5c0-0.3,0.3-0.6,0.6-0.6l1.4,0C13,13.3,13.3,13.6,13.3,13.9z M10.7,10.1v-5L9,5.2c-0.8,0-1.2-1-0.6-1.6l3-3c0.4-0.4,0.9-0.4,1.3,0
	l3,3c0.6,0.6,0.2,1.5-0.6,1.5l-1.7-0.1v5c0,0.3-0.3,0.6-0.6,0.6h-1.4C11,10.7,10.7,10.4,10.7,10.1L10.7,10.1z"/>
</svg>
