<svg version="1.1" xmlns="http://www.w3.org/2000/svg" xmlns:xlink="http://www.w3.org/1999/xlink" viewBox="0 0 24 24" xml:space="preserve">
<path class="st0" d="M10.7,22.4v-5.3L9,17.2c-0.8,0-1.2-1-0.6-1.5l3-3c0.4-0.4,0.9-0.4,1.3,0l3,3c0.6,0.6,0.2,1.5-0.6,1.5l-1.7-0.1
	l0,5.3c0,0.3-0.3,0.6-0.6,0.6h-1.4C11,23,10.7,22.8,10.7,22.4z M13.3,1.6l0,5.3L15,6.8c0.8,0,1.2,1,0.6,1.5l-3,3
	c-0.4,0.4-0.9,0.4-1.3,0l-3-3C7.8,7.8,8.2,6.8,9,6.8l1.7,0.1l0-5.3C10.7,1.2,11,1,11.3,1l1.4,0C13,1,13.3,1.2,13.3,1.6z"/>
</svg>
